# xmcd
#
# Track frame offsets:
#	150
#	10211
#	23198
#	38806
#	56276
#	73826
#	86157
#	100104
#	112898
#	125698
#	138288
#	153315
#	165560
#	180821
#	193242
#	209608
#	223434
#	238362
#	249321
#	264573
#	277858
#	290797
#	301277
#	312978
#	323462
#
# Disc length: 4469 seconds
#
# Revision: 1
# Processed by: cddbd v1.5.2PL0 Copyright (c) Steve Scherf et al.
# Submitted via: audiograbber 1.83.01
#
DISCID=6b117319
DTITLE=Ray Charles - The Very Best Of CD 2
DYEAR=2011
DGENRE=Rhythm and Blues
TTITLE0=Sticks And Stones
TTITLE1=Ain't That Love
TTITLE2=Night Time Is The Right Time
TTITLE3=Ruby
TTITLE4=Rockhouse Parts I and II
TTITLE5=It Should Have Been Me
TTITLE6=Come Back Baby
TTITLE7=Greenbacks
TTITLE8=When Your Lover Has Gone
TTITLE9=My Bonnie
TTITLE10=You Won't Let Me Go
TTITLE11=It Had To Be You
TTITLE12=Tell me You'll Wait For Me
TTITLE13=That's Enough
TTITLE14=Am I Blue?
TTITLE15=Tell The Truth
TTITLE16=Moon Over Miami
TTITLE17=Deep In The Heart Of Texas
TTITLE18=Mississippi Mud
TTITLE19=Don't You Know
TTITLE20=Alexander's Ragtime Band
TTITLE21=Blackjack
TTITLE22=See See Rider
TTITLE23=Swanee River Rock
TTITLE24=What Would I Do Without You?
EXTD=
EXTT0=
EXTT1=
EXTT2=
EXTT3=
EXTT4=
EXTT5=
EXTT6=
EXTT7=
EXTT8=
EXTT9=
EXTT10=
EXTT11=
EXTT12=
EXTT13=
EXTT14=
EXTT15=
EXTT16=
EXTT17=
EXTT18=
EXTT19=
EXTT20=
EXTT21=
EXTT22=
EXTT23=
EXTT24=
PLAYORDER=
